<?xml version="1.0" encoding="UTF-8" standalone="no"?>
<!DOCTYPE svg PUBLIC "-//W3C//DTD SVG 1.1//EN" "http://www.w3.org/Graphics/SVG/1.1/DTD/svg11.dtd">
<svg width="100%" height="100%" viewBox="0 0 468 468" version="1.1" xmlns="http://www.w3.org/2000/svg" xmlns:xlink="http://www.w3.org/1999/xlink" xml:space="preserve" xmlns:serif="http://www.serif.com/" style="fill-rule:evenodd;clip-rule:evenodd;stroke-linejoin:round;stroke-miterlimit:2;">
    <g transform="matrix(1.04464,0,0,1.04464,0,-33.4285)">
        <path d="M0,96C0,60.65 28.65,32 64,32L384,32C419.3,32 448,60.65 448,96L448,416C448,451.3 419.3,480 384,480L64,480C28.65,480 0,451.3 0,416L0,96Z" style="fill:rgb(46,52,64);fill-rule:nonzero;"/>
    </g>
    <g transform="matrix(1,0,0,1,10,-22.0285)">
        <path d="M0,96C0,60.65 28.65,32 64,32L384,32C419.3,32 448,60.65 448,96L448,416C448,451.3 419.3,480 384,480L64,480C28.65,480 0,451.3 0,416L0,96ZM70.31,151.8C61.35,161.6 62.01,176.7 71.78,185.7L148.5,256L71.78,326.3C62.01,335.3 61.35,350.4 70.31,360.2C79.26,369.1 94.45,370.6 104.2,361.7L200.2,273.7C205.2,269.1 208,262.7 208,255.1C208,249.3 205.2,242.9 200.2,238.3L104.2,150.3C94.45,141.4 79.26,142 70.31,151.8ZM216,336C202.7,336 192,346.7 192,360C192,373.3 202.7,384 216,384L360,384C373.3,384 384,373.3 384,360C384,346.7 373.3,336 360,336L216,336Z" style="fill:rgb(236,239,244);fill-rule:nonzero;"/>
    </g>
</svg>
