<?xml version="1.0" standalone="no"?>
<!DOCTYPE svg PUBLIC "-//W3C//DTD SVG 20010904//EN"
 "http://www.w3.org/TR/2001/REC-SVG-20010904/DTD/svg10.dtd">
<svg version="1.0" xmlns="http://www.w3.org/2000/svg"
 width="700.000000pt" height="700.000000pt" viewBox="0 0 700.000000 700.000000"
 preserveAspectRatio="xMidYMid meet">
<metadata>
Created by potrace 1.14, written by Peter Selinger 2001-2017
</metadata>
<g transform="translate(0.000000,700.000000) scale(0.100000,-0.100000)"
fill="#000000" stroke="none">
<path d="M827 6984 c-207 -37 -381 -129 -532 -279 -153 -151 -243 -326 -280
-542 -13 -78 -15 -397 -12 -2703 l2 -2615 22 -80 c109 -400 413 -682 811 -750
77 -13 406 -15 2702 -12 l2615 2 80 22 c240 65 457 214 584 402 60 88 126 231
153 331 l23 85 2 2615 c3 2306 1 2625 -12 2703 -69 398 -350 701 -750 810
l-80 22 -2625 2 c-2221 1 -2637 -1 -2703 -13z m5253 -154 c187 -38 334 -115
471 -247 160 -154 247 -317 284 -532 23 -127 22 -4976 0 -5104 -35 -199 -122
-366 -269 -513 -147 -147 -314 -234 -513 -269 -129 -23 -4977 -23 -5106 0
-377 66 -668 339 -774 727 -16 59 -18 237 -21 2558 -2 1821 0 2517 8 2575 30
205 116 383 257 528 145 149 300 235 496 276 90 19 157 20 2580 20 2449 1
2490 1 2587 -19z"/>
<path d="M1400 5169 c-108 -21 -217 -107 -263 -207 -18 -38 -22 -65 -22 -147
0 -171 -30 -136 662 -770 l593 -544 -597 -549 c-693 -636 -658 -594 -658 -767
0 -81 4 -109 21 -146 82 -176 310 -258 486 -175 41 19 218 176 748 662 382
349 725 665 762 701 94 93 123 158 123 278 0 119 -25 171 -132 276 -218 214
-1453 1334 -1493 1354 -25 13 -72 28 -105 34 -65 12 -63 12 -125 0z"/>
<path d="M3280 2291 c-149 -46 -260 -194 -260 -347 0 -64 35 -163 78 -219 39
-52 121 -108 182 -125 22 -6 467 -10 1182 -10 1136 0 1148 0 1203 21 73 27
156 104 192 177 25 51 28 68 28 157 0 91 -3 105 -29 158 -35 68 -108 140 -174
170 l-47 22 -1165 2 c-641 1 -1176 -2 -1190 -6z"/>
</g>
</svg>
