<?xml version="1.0" standalone="no"?>
<!DOCTYPE svg PUBLIC "-//W3C//DTD SVG 20010904//EN"
 "http://www.w3.org/TR/2001/REC-SVG-20010904/DTD/svg10.dtd">
<svg version="1.0" xmlns="http://www.w3.org/2000/svg"
 width="586.000000pt" height="586.000000pt" viewBox="0 0 586.000000 586.000000"
 preserveAspectRatio="xMidYMid meet">
<metadata>
Created by potrace 1.14, written by Peter Selinger 2001-2017
</metadata>
<g transform="translate(0.000000,586.000000) scale(0.100000,-0.100000)"
fill="#000000" stroke="none">
<path d="M1095 5254 c-188 -46 -353 -184 -441 -369 -67 -140 -64 -31 -64
-1950 0 -1949 -5 -1810 75 -1973 99 -200 289 -333 517 -362 114 -14 3382 -14
3496 0 228 29 418 162 517 362 81 165 76 21 73 2006 -3 1693 -4 1769 -22 1822
-80 238 -263 412 -486 464 -95 23 -3572 22 -3665 0z m3605 -105 c112 -31 185
-74 276 -164 64 -64 90 -97 123 -165 76 -156 72 -32 69 -1918 l-3 -1687 -31
-85 c-38 -108 -86 -181 -174 -263 -75 -72 -173 -126 -280 -154 -61 -17 -173
-18 -1750 -18 -1577 0 -1689 1 -1750 18 -107 28 -205 82 -280 154 -88 82 -136
155 -174 263 l-31 85 -3 1687 c-3 1886 -7 1762 69 1918 33 67 59 102 123 165
90 89 154 128 266 162 l75 22 1700 0 c1690 1 1701 1 1775 -20z"/>
<path d="M1460 4026 c-111 -56 -158 -191 -109 -307 19 -43 74 -97 421 -416
391 -358 398 -366 381 -385 -10 -11 -187 -175 -394 -365 -233 -213 -384 -359
-398 -384 -70 -124 -14 -277 122 -334 55 -23 145 -20 195 8 66 35 1040 933
1064 981 11 22 23 66 25 97 11 113 15 108 -548 624 -276 253 -520 470 -543
482 -58 31 -155 31 -216 -1z"/>
<path d="M2739 2107 c-115 -61 -160 -202 -101 -318 33 -66 93 -113 162 -128
34 -7 288 -11 770 -11 482 0 736 4 770 11 69 15 129 62 163 129 25 48 28 63
24 118 -6 77 -43 142 -106 187 l-43 30 -797 3 -797 2 -45 -23z"/>
</g>
</svg>
